<svg width="1460" height="973" viewBox="0 0 1460 973" fill="none" xmlns="http://www.w3.org/2000/svg">
<g id="BACKGROUND_2_1_">
<g id="Group">
<path id="Vector" d="M1460 0H0V973H1460V0Z" fill="url(#paint0_linear)"/>
<path id="Vector_2" opacity="0.45" d="M1133.12 561.596C1092.24 552.839 1077.64 561.596 1051.36 561.596C1025.08 561.596 1007.56 567.434 972.516 564.515C937.476 561.596 928.716 535.325 829.436 509.054C730.156 482.783 724.316 526.568 674.676 520.73C625.036 514.892 625.036 500.297 575.396 509.054C525.756 517.811 540.356 541.163 449.836 529.487C359.316 517.811 368.076 529.487 324.276 538.244C280.476 547.001 280.476 500.297 222.076 474.026C163.676 447.755 157.836 474.026 78.9957 430.241C38.3688 407.648 14.0355 404.515 0 406.733V773.496C157.446 780.619 438.117 793.832 452.795 798.016C473.235 803.854 1159.4 757.15 1159.4 757.15L1378.38 710.446C1378.38 710.446 1302.46 654.985 1245.59 636.323C1188.75 617.68 1174 570.353 1133.12 561.596Z" fill="white"/>
<g id="Group_2">
<path id="Vector_3" d="M1460 588.217L1410.42 612.99L1340.34 659.694C1340.34 659.694 1299.46 649.964 1284.86 642.18C1270.26 634.396 1184.61 616.882 1178.77 614.936C1172.93 612.99 1098.95 574.07 1098.95 574.07L1069.75 597.422L1034.71 624.666L987.992 603.26L937.378 570.178L890.658 589.638L840.045 616.882L608.392 661.64L538.312 640.234L485.752 624.666L448.765 601.314L417.618 585.746L394.258 564.34L367.005 579.908L298.872 603.26L256.045 634.396C256.045 634.396 125.618 698.614 119.778 704.452C119.778 704.452 56.2392 713.17 0 723.562V859.646C294.258 860.151 806.952 856.24 806.952 856.24H1460V588.217Z" fill="#FC895B"/>
<path id="Vector_4" d="M937.379 570.178L890.659 589.638L850.635 611.18L836.152 652.883L879.952 616.882L915.965 595.476L937.379 570.178Z" fill="#FDB16F"/>
<path id="Vector_5" d="M307.963 642.18L342.36 624.024L333.931 614.294L370.256 597.422L392.974 567.59L394.122 564.437L367.005 579.908L298.872 603.26L256.045 634.396C256.045 634.396 225.872 649.244 193.907 665.318C193.421 681.178 193.09 693.418 193.09 693.418L274.85 673.958L307.963 642.18Z" fill="#FDB16F"/>
<path id="Vector_6" d="M1098.95 574.07L1084.35 606.179L1058.07 619.801L1048.34 633.423L1034.71 624.666L1098.95 574.07Z" fill="#FDB16F"/>
</g>
<g id="Group_3">
<path id="Vector_7" d="M1460 679.932L1428.85 667.478L1413.28 638.288L1349.04 616.882L1323.73 601.314L1310.11 579.908L1286.75 566.286L1267.28 539.042L1251.71 525.42L1214.72 556.556L1177.73 583.8L1117.39 651.91L1060.93 663.586L1029.79 683.046L994.747 679.154L979.173 661.64L934.4 644.126L889.627 603.26L860.427 583.8C860.427 583.8 825.387 587.692 819.547 583.8C813.707 579.908 794.24 560.448 794.24 560.448L770.88 542.934L739.733 546.826L730 556.556L716.373 562.394H694.96H667.707L628.773 591.584L587.893 607.152L529.493 636.342L457.467 669.424L402.96 667.478L346.507 657.748L301.733 638.288L264.747 640.234L233.6 651.91L206.347 632.45L169.36 618.828L147.947 593.53H124.587L66.1867 618.828L0 652.864V1050.84H1460V679.932Z" fill="url(#paint1_linear)"/>
<path id="Vector_8" d="M1341.64 623.362L1372.79 636.342L1406.53 644.126L1374.09 672.674L1335.16 679.154L1296.23 698.614L1316.98 659.694L1335.16 638.93L1341.64 623.362Z" fill="#9D4D51"/>
<path id="Vector_9" d="M1281.94 579.266L1301.41 584.442L1294.92 598.726L1267.67 610.402L1245.61 636.342L1224.84 657.106L1198.89 671.37L1224.84 648.018L1246.9 612.99L1259.88 593.53L1263.78 570.178L1281.94 579.266Z" fill="#9D4D51"/>
<path id="Vector_10" d="M1250.79 537.738L1188.5 592.226L1156.07 636.342L1141.78 664.89L1143.08 681.742L1102.85 673.958L1069.11 670.066L1109.35 659.694L1124.92 658.39L1175.53 594.834L1250.79 537.738Z" fill="#9D4D51"/>
<path id="Vector_11" d="M1288.75 612.017L1271.23 621.747L1244.95 663.586L1219.65 686.938L1194.34 701.533L1229.38 698.614L1279.99 676.235L1284.86 642.18L1283.89 621.747L1288.75 612.017Z" fill="#9D4D51"/>
<path id="Vector_12" d="M668.096 574.07L635.645 596.118L581.138 619.47L492.896 663.586L446.176 683.046L508.469 670.066L578.549 638.93L653.827 612.99L705.725 587.05L730.389 574.07L688.867 575.374H662.898" fill="#9D4D51"/>
<path id="Vector_13" d="M735.587 566.286L744.658 554.61L769.323 550.718L752.445 564.982L735.587 566.286Z" fill="#9D4D51"/>
<path id="Vector_14" d="M825.134 593.53L856.28 598.726L880.925 611.686L903 629.862L875.747 598.726L857.565 590.942L825.134 593.53Z" fill="#9D4D51"/>
<path id="Vector_15" d="M762.84 620.774L727.8 646.714L694.045 659.694L649.914 699.918L625.27 714.182L682.365 696.026C682.365 696.026 719.994 673.978 723.888 672.674C727.781 671.37 782.288 654.518 782.288 654.518L812.13 631.166L836.794 627.274L784.877 623.382L762.84 620.774Z" fill="#9D4D51"/>
<path id="Vector_16" d="M237.552 658.721L265.778 648.018C265.778 648.018 303.738 643.153 300.818 643.153C297.898 643.153 277.458 659.694 277.458 659.694L252.152 658.721L230.738 664.559L237.552 658.721Z" fill="#9D4D51"/>
<path id="Vector_17" d="M40.4519 638.288L71.5986 622.234L123.672 598.395L146.545 597.422L127.565 611.044L100.312 613.963L70.6252 628.072L40.4519 638.288Z" fill="#9D4D51"/>
<path id="Vector_18" d="M165.525 626.126L197.158 635.369L156.278 642.18L130.485 646.072L101.285 657.262C101.285 657.262 78.4117 674.289 77.925 672.83C77.4383 671.37 96.905 651.424 96.905 651.424L139.245 634.883L165.525 626.126Z" fill="#9D4D51"/>
<path id="Vector_19" d="M1460 728.096L1365.65 755.048L1293.62 770.616L1215.75 772.562L1190.45 780.346H1149.57H1087.27L1015.25 776.454L954.898 774.508L873.138 766.724L808.898 768.67L834.205 778.4L789.432 784.238L729.085 782.292L697.938 768.67L703.778 758.94L625.912 768.67L431.245 778.4L378.685 774.508L341.698 753.102L293.032 743.372L234.632 741.426L164.552 745.318L90.5784 749.21L94.4717 729.75L65.2717 741.426L28.2851 731.696L45.8051 710.29L14.6584 704.452L0 714.61V836.605L145.085 902.944C145.085 902.944 1030.82 850.402 1052.23 867.916C1067.2 880.156 1313.18 864.841 1460 854.489V728.096Z" fill="url(#paint2_linear)"/>
</g>
<g id="Group_4">
<path id="Vector_20" d="M1433.86 771.842L1325.82 782.409L1252.82 796.498L1124.34 789.453C1124.34 789.453 987.096 778.887 963.736 785.931C940.376 792.976 846.936 792.976 846.936 792.976L779.776 803.542H665.896L686.336 785.931L607.496 782.409H376.875L350.595 764.798C350.595 764.798 271.755 764.798 254.235 761.275C236.715 757.753 178.315 754.231 163.715 754.231C153.164 754.231 54.0589 761.587 0 765.673V1050.84H1460V773.146L1433.86 771.842Z" fill="url(#paint3_linear)"/>
<path id="Vector_21" d="M58.6141 920.614L236.734 903.1L388.574 923.533L490.774 929.371L540.414 949.804L487.854 958.561L420.694 961.48L318.494 978.994L417.774 1043.21L450.926 1052.3H1168.25L1138.99 1019.86L1223.67 1025.7L1349.23 973.156L1419.31 976.075L1378.43 996.508L1439.75 1016.94L1460.06 1018.26V815.938L1349.23 830.144L1247.03 856.415H1138.99L1036.79 868.091L1074.75 879.767L987.155 885.605L873.275 856.415L753.555 862.253L519.974 827.225L511.214 812.63L546.254 803.873C546.254 803.873 461.574 798.035 452.814 798.035C444.054 798.035 338.934 795.116 338.934 795.116L233.814 827.225L131.458 848.456L0 859.646V918.064L58.6141 920.614Z" fill="#CE684C"/>
</g>
<g id="Group_5">
<path id="Vector_22" d="M581.138 965.216L530.525 953.54L355.325 924.35L269.672 869.862L203.485 850.402L207.378 813.428L131.458 770.616L0 741.407V973H585.81L581.138 965.216Z" fill="url(#paint4_linear)"/>
<path id="Vector_23" d="M148.978 864.666C148.978 864.666 41.2693 899.694 39.965 904.89C39.1669 908.043 17.3253 944.705 0.272461 973H585.81L581.138 965.216L530.525 953.54L355.325 924.35L269.672 869.862L203.485 850.402L207.378 813.428L148.978 864.666Z" fill="url(#paint5_linear)"/>
</g>
</g>
</g>
<defs>
<linearGradient id="paint0_linear" x1="730" y1="881.538" x2="730" y2="5.27558" gradientUnits="userSpaceOnUse">
<stop stop-color="#FFFFF3"/>
<stop offset="1" stop-color="#FED0B0"/>
</linearGradient>
<linearGradient id="paint1_linear" x1="730" y1="1213.01" x2="730" y2="296.642" gradientUnits="userSpaceOnUse">
<stop stop-color="#D64D51"/>
<stop offset="0.3438" stop-color="#9C4451"/>
<stop offset="0.791" stop-color="#573A52"/>
<stop offset="1" stop-color="#3B3652"/>
</linearGradient>
<linearGradient id="paint2_linear" x1="730" y1="375.579" x2="730" y2="1052.94" gradientUnits="userSpaceOnUse">
<stop stop-color="#D64D51"/>
<stop offset="0.3438" stop-color="#9C4451"/>
<stop offset="0.791" stop-color="#573A52"/>
<stop offset="1" stop-color="#3B3652"/>
</linearGradient>
<linearGradient id="paint3_linear" x1="730" y1="1127.03" x2="730" y2="105.584" gradientUnits="userSpaceOnUse">
<stop stop-color="#D64D51"/>
<stop offset="0.3438" stop-color="#9C4451"/>
<stop offset="0.791" stop-color="#573A52"/>
<stop offset="1" stop-color="#3B3652"/>
</linearGradient>
<linearGradient id="paint4_linear" x1="290.796" y1="1159.07" x2="294.687" y2="602.51" gradientUnits="userSpaceOnUse">
<stop stop-color="#D64D51"/>
<stop offset="0.3438" stop-color="#9C4451"/>
<stop offset="0.791" stop-color="#573A52"/>
<stop offset="1" stop-color="#3B3652"/>
</linearGradient>
<linearGradient id="paint5_linear" x1="285.234" y1="1089.48" x2="299.5" y2="876.719" gradientUnits="userSpaceOnUse">
<stop stop-color="#D64D51"/>
<stop offset="0.3438" stop-color="#9C4451"/>
<stop offset="0.791" stop-color="#573A52"/>
<stop offset="1" stop-color="#3B3652"/>
</linearGradient>
</defs>
</svg>
